<?xml version="1.0" standalone="no"?>
<!DOCTYPE svg PUBLIC "-//W3C//DTD SVG 20010904//EN"
 "http://www.w3.org/TR/2001/REC-SVG-20010904/DTD/svg10.dtd">
<svg version="1.0" xmlns="http://www.w3.org/2000/svg"
 width="571.000000pt" height="227.000000pt" viewBox="0 0 571.000000 227.000000"
 preserveAspectRatio="xMidYMid meet">

<g transform="translate(0.000000,227.000000) scale(0.100000,-0.100000)"
fill="#000000" stroke="none">
<path d="M637 1940 c-91 -16 -162 -44 -237 -95 -298 -202 -344 -611 -100 -889
48 -54 156 -121 245 -153 l80 -28 454 -3 454 -3 -8 28 c-10 44 -54 93 -99 114
-38 17 -71 19 -402 19 -412 0 -441 4 -547 80 -274 196 -220 624 96 754 51 20
67 21 577 24 l525 3 -174 -175 -174 -175 106 -3 107 -3 257 258 257 257 -684
-1 c-377 -1 -707 -5 -733 -9z"/>
<path d="M2302 1424 c-37 -26 -52 -67 -52 -144 0 -92 16 -125 86 -175 66 -47
74 -60 74 -117 0 -60 -9 -86 -32 -93 -35 -12 -48 12 -48 86 l0 69 -40 0 -40 0
0 -70 c0 -111 36 -160 117 -160 33 0 50 7 75 29 32 29 33 32 36 123 4 90 3 96
-23 126 -14 17 -48 47 -75 67 l-50 37 0 72 c0 70 10 96 36 96 30 0 44 -31 44
-96 l0 -64 36 0 36 0 -3 86 c-4 82 -5 87 -37 115 -37 34 -102 40 -140 13z"/>
<path d="M2550 1130 l0 -310 40 0 39 0 3 153 3 152 34 -98 c18 -54 35 -96 37
-94 3 2 20 49 38 103 l34 99 1 -157 1 -158 40 0 40 0 0 310 c0 299 -1 310 -19
310 -15 0 -26 -17 -47 -72 -40 -107 -85 -223 -88 -226 -2 -1 -29 65 -61 148
-46 118 -62 150 -77 150 -17 0 -18 -16 -18 -310z"/>
<path d="M3015 1428 c-2 -7 -25 -134 -50 -283 -26 -148 -49 -283 -52 -298 -6
-28 -5 -28 33 -25 36 3 39 6 44 38 5 34 6 35 58 38 49 3 52 2 52 -22 0 -44 10
-56 46 -56 19 0 34 3 34 8 0 4 -23 143 -52 310 l-53 302 -28 0 c-15 0 -29 -6
-32 -12z m50 -334 c20 -119 21 -114 -21 -114 -34 0 -36 2 -31 28 3 15 11 62
17 105 7 43 15 76 17 74 2 -2 10 -44 18 -93z"/>
<path d="M3230 1130 l0 -310 40 0 40 0 0 135 c0 76 4 135 9 135 9 0 17 -22 63
-187 l23 -83 37 0 c21 0 38 3 38 8 0 4 -18 68 -40 142 -33 113 -37 136 -25
143 8 4 22 21 30 37 20 39 20 190 0 229 -20 40 -71 61 -149 61 l-66 0 0 -310z
m150 211 c5 -11 10 -45 10 -76 0 -72 -12 -95 -50 -95 l-30 0 0 95 0 95 30 0
c19 0 33 -7 40 -19z"/>
<path d="M3532 1403 c3 -36 5 -38 41 -41 l37 -3 0 -270 0 -269 35 0 35 0 0
270 0 270 40 0 40 0 0 40 0 40 -116 0 -115 0 3 -37z"/>
<path d="M3990 1130 l0 -310 40 0 39 0 3 153 3 152 34 -100 c38 -111 31 -114
81 30 l28 80 1 -157 1 -158 40 0 40 0 0 310 c0 299 -1 310 -19 310 -14 0 -25
-14 -39 -52 -53 -139 -93 -243 -96 -245 -2 -2 -29 64 -61 147 -46 119 -62 150
-76 150 -18 0 -19 -15 -19 -310z"/>
<path d="M4422 1424 c-48 -33 -52 -58 -52 -294 0 -236 4 -261 52 -294 38 -27
103 -21 140 13 l33 29 0 252 0 252 -33 29 c-37 34 -102 40 -140 13z m92 -70
c14 -13 16 -47 16 -212 0 -108 -3 -207 -6 -219 -7 -27 -40 -39 -59 -23 -20 16
-22 439 -3 458 16 16 33 15 52 -4z"/>
<path d="M4670 1130 l0 -310 66 0 c78 0 129 21 149 61 20 38 20 184 0 222 -13
26 -13 31 0 50 22 32 21 189 -2 228 -24 41 -70 59 -147 59 l-66 0 0 -310z
m150 211 c5 -11 10 -45 10 -76 0 -72 -12 -95 -50 -95 l-30 0 0 95 0 95 30 0
c19 0 33 -7 40 -19z m0 -270 c5 -11 10 -45 10 -76 0 -72 -12 -95 -50 -95 l-30
0 0 95 0 95 30 0 c19 0 33 -7 40 -19z"/>
<path d="M4970 1130 l0 -310 40 0 40 0 0 310 0 310 -40 0 -40 0 0 -310z"/>
<path d="M5120 1130 l0 -310 95 0 95 0 0 40 0 40 -55 0 -55 0 0 270 0 270 -40
0 -40 0 0 -310z"/>
<path d="M5364 1415 l-25 -25 3 -265 c4 -315 -3 -298 119 -304 l80 -3 -3 38
-3 39 -57 3 -58 3 0 94 0 95 61 0 60 0 -3 38 -3 37 -57 3 -58 3 0 94 0 94 58
3 57 3 3 38 3 37 -76 0 c-68 0 -79 -3 -101 -25z"/>
<path d="M625 1343 c21 -50 51 -82 100 -104 37 -17 71 -19 402 -19 406 0 436
-4 538 -75 292 -201 223 -660 -114 -766 -59 -18 -96 -19 -569 -19 l-507 0 174
174 174 175 -106 3 -107 3 -258 -258 -257 -258 709 6 c464 3 724 9 755 16 99
24 192 78 272 158 83 84 127 160 155 271 22 88 15 252 -14 334 -64 177 -205
311 -392 372 -49 16 -107 18 -513 22 l-458 3 16 -38z"/>
</g>
</svg>
